<svg xmlns="http://www.w3.org/2000/svg" width="23.85" height="24.946" viewBox="0 0 23.85 24.946">
  <g id="athlete-running" transform="translate(23.899) rotate(180)">
    <path id="Path" d="M-21.385,9.96c1.351.849,2.71,1.689,4.066,2.531l3.3-5.089a1.434,1.434,0,0,1,.123-.119A42.431,42.431,0,0,1-11.38,3.458a48.161,48.161,0,0,1-5.567-.133c-2.069-.176-2.087-3.423,0-3.246A50.491,50.491,0,0,0-7.921.008a1.5,1.5,0,0,1,.763.116A2.808,2.808,0,0,1-5.634.871a2.716,2.716,0,0,1-.023,3.753,42.62,42.62,0,0,0-3.757,5.5l4.956,1.408a1.517,1.517,0,0,1,.915.675,1.723,1.723,0,0,1,.137.169A41.9,41.9,0,0,1-.16,18.214c.854,1.892-1.942,3.544-2.8,1.639a41.468,41.468,0,0,0-2.94-5.36q-3.692-1.05-7.385-2.1a1.74,1.74,0,0,1-.33-.13A33.739,33.739,0,0,0-15.482,15.4a.8.8,0,0,1-.549.49,1.494,1.494,0,0,1-1.7.022c-1.8-1.135-3.626-2.248-5.431-3.383C-24.863,11.455-23.087,8.889-21.385,9.96Z" transform="translate(0.048 -4.249) rotate(180)" fill="#2b2826"/>
    <circle id="Oval" cx="2.434" cy="2.434" r="2.434" transform="translate(6.241 0) rotate(180)" fill="#2b2826"/>
  </g>
</svg>
