<svg xmlns="http://www.w3.org/2000/svg" width="24.502" height="23" viewBox="0 0 24.502 23">
  <path id="Exclusion_20" data-name="Exclusion 20" d="M17.347,23h-15A2.355,2.355,0,0,1,0,20.7V2.3A2.355,2.355,0,0,1,2.347,0h7.908a.786.786,0,0,1,.816.75v5.4a2.326,2.326,0,0,0,2.346,2.3h5.612a.777.777,0,0,1,.765.75v1a.79.79,0,0,1-.255.55L14.694,15.5a1.2,1.2,0,0,0-.46,1.05v2.7a1.467,1.467,0,0,0,1.48,1.45h3.622a.374.374,0,0,1,.279.156.353.353,0,0,1,.078.294A2.385,2.385,0,0,1,17.347,23ZM3.929,15.35a.777.777,0,0,0-.765.75v.75a.741.741,0,0,0,.765.751h6.377a.778.778,0,0,0,.766-.751H11.02V16.1a.741.741,0,0,0-.765-.75Zm0-9.2a.778.778,0,0,0-.765.751v.75a.741.741,0,0,0,.765.75H7.092a.777.777,0,0,0,.765-.75V6.9a.741.741,0,0,0-.765-.751ZM18.01,18.45H16.683c-.1,0-.1-.1-.1-.2V17a.144.144,0,0,0-.009-.043l0-.006c-.012-.033-.024-.068.011-.1l6.071-5.95a.9.9,0,0,1,.58-.225.764.764,0,0,1,.542.225l.459.45a.7.7,0,0,1,.266.49.911.911,0,0,1-.266.661l-6.071,5.9a.158.158,0,0,0-.07.022l-.005,0A.186.186,0,0,1,18.01,18.45Zm1.174-12.3H15A1.568,1.568,0,0,1,13.418,4.6V.55A.563.563,0,0,1,13.98,0a.685.685,0,0,1,.408.15l5.2,5.05a.654.654,0,0,1,.153.4A.563.563,0,0,1,19.184,6.15Z" fill="#2b2826"/>
</svg>
