<svg id="Group" xmlns="http://www.w3.org/2000/svg" width="24" height="24" viewBox="0 0 24 24">
  <path id="Shape" d="M16,24H8a.792.792,0,0,1-.8-.8v-.8a.792.792,0,0,1,.8-.8h.4a2.432,2.432,0,0,0,2.4-2.4v-.8a.367.367,0,0,1,.4-.4h1.6a.368.368,0,0,1,.4.4v.8a2.432,2.432,0,0,0,2.4,2.4H16a.792.792,0,0,1,.8.8v.8A.792.792,0,0,1,16,24Zm-3.928-8.4H11.95a7.114,7.114,0,0,1-3.944-1.262A7.344,7.344,0,0,1,5.45,11.2H3.6A3.585,3.585,0,0,1,0,7.6V2.4a.792.792,0,0,1,.8-.8h4V.8A.792.792,0,0,1,5.6,0H18.4a.792.792,0,0,1,.8.8v.8h4a.792.792,0,0,1,.8.8V7.6a3.585,3.585,0,0,1-3.6,3.6H18.65A7.15,7.15,0,0,1,12.072,15.6ZM19.2,4V8.3a1.891,1.891,0,0,1-.023.238l0,.012a1.882,1.882,0,0,0-.025.25H20.4a1.161,1.161,0,0,0,1.2-1.2V4ZM2.4,4V7.6A1.161,1.161,0,0,0,3.6,8.8H4.85a2.022,2.022,0,0,1-.05-.55V4Z" transform="translate(0)" fill="#2b2826"/>
</svg>
